<?xml version="1.0" encoding="utf-8"?>
<!-- Generator: Adobe Illustrator 26.5.0, SVG Export Plug-In . SVG Version: 6.00 Build 0)  -->
<svg version="1.1" id="Layer_1" xmlns="http://www.w3.org/2000/svg" xmlns:xlink="http://www.w3.org/1999/xlink" x="0px" y="0px"
	 viewBox="0 0 700 700" style="enable-background:new 0 0 700 700;" xml:space="preserve">
<style type="text/css">
	.st0{fill:#063D45;}
</style>
<g>
	<path class="st0" d="M353.5,99.7c-139,0-252,113-252,252s113,252,252,252s252-113,252-252S492.5,99.7,353.5,99.7z M353.5,133.3
		c120.8,0,218.4,97.6,218.4,218.4s-97.6,218.4-218.4,218.4s-218.4-97.6-218.4-218.4S232.7,133.3,353.5,133.3L353.5,133.3z
		 M256.4,239.5c-4.2,0.5-8.2,2.5-10.9,5.7s-4.2,7.4-4.1,11.7c0.2,4.3,2,8.3,5,11.3l83.3,83.5L246.4,435c-3.5,3.1-5.5,7.5-5.6,12.1
		c-0.1,4.6,1.7,9.1,5,12.4c3.3,3.3,7.8,5,12.4,4.9c4.6-0.2,9-2.2,12.1-5.7l83.3-83.3l83.3,83.3c3.1,3.5,7.4,5.6,12.1,5.7
		c4.6,0.2,9.1-1.6,12.4-4.9c3.3-3.3,5.1-7.8,5-12.4c-0.1-4.6-2.2-9-5.6-12.1l-83.3-83.3l83.3-83.5c3.4-3.3,5.2-7.9,5.1-12.6
		c-0.2-4.7-2.3-9.2-5.9-12.2c-3.6-3.1-8.3-4.5-13-3.9c-3.8,0.5-7.3,2.3-10,5.1l-83.3,83.3l-83.3-83.3
		C266.6,240.8,261.5,239,256.4,239.5L256.4,239.5z"/>
</g>
</svg>
