<?xml version="1.0" encoding="utf-8"?>
<!-- Generator: Adobe Illustrator 26.5.0, SVG Export Plug-In . SVG Version: 6.00 Build 0)  -->
<svg version="1.1" id="Layer_1" xmlns="http://www.w3.org/2000/svg" xmlns:xlink="http://www.w3.org/1999/xlink" x="0px" y="0px"
	 viewBox="0 0 700 700" style="enable-background:new 0 0 700 700;" xml:space="preserve">
<style type="text/css">
	.st0{fill-rule:evenodd;clip-rule:evenodd;}
</style>
<path class="st0" d="M487.4,196.2c-3.7,0-7.3,1.5-9.9,4.1l-23.1,23.1c-33-13.8-68.5-20.9-104.3-21h0h0
	c-97.9,0-188.2,52.8-236.2,138.2h0c-2.4,4.3-2.4,9.5,0,13.7c24.7,44,61.2,80.2,105.2,104.5L202.7,475h0c-5.5,5.5-5.5,14.3,0,19.8
	c2.6,2.6,6.2,4.1,9.9,4.1c3.7,0,7.3-1.5,9.9-4.1l87.2-87.2c0,0,0,0,0,0c0,0,0,0,0,0l187.5-187.4h0c2.6-2.6,4.1-6.2,4.1-9.9
	c0-3.7-1.5-7.3-4.1-9.9C494.6,197.7,491.1,196.2,487.4,196.2L487.4,196.2z M350,230.4c28.3,0,56.3,5,82.7,14.6l-33.5,33.5
	c-14.3-10.2-31.5-15.8-49.3-15.8c-46.7,0-84.9,38.2-84.9,84.9c0,17.8,5.6,35,15.8,49.3l-41.3,41.3c-40.3-20.6-74-51.9-97.4-90.6
	C186.2,275,264.8,230.4,350,230.4L350,230.4z M508.6,256.5L508.6,256.5c-0.9-0.1-1.8-0.1-2.8,0c-3.7,0.5-7,2.4-9.3,5.3
	c-4.7,6.1-3.6,14.9,2.5,19.6c23.5,18.3,43.4,40.7,58.8,66.1c-43.9,72.5-122.6,117-207.7,117c-14.7,0-29.4-1.3-43.8-4
	c-3.7-0.7-7.4,0.1-10.5,2.2c-3.1,2.1-5.2,5.3-5.8,9c-1.4,7.6,3.6,14.9,11.2,16.3c16.1,3,32.5,4.4,48.9,4.4h0
	c97.9,0,188.2-52.9,236.2-138.3c2.4-4.3,2.4-9.5,0-13.7c-17.7-31.5-41.5-59.1-70-81.3c-2.2-1.7-4.8-2.7-7.6-2.9L508.6,256.5z
	 M350,290.7c10.3,0,20.4,2.8,29.1,8l-78,78c-5.2-8.7-8-18.8-8-29.1C293.1,316,318.4,290.7,350,290.7L350,290.7z"/>
</svg>
