<?xml version="1.0" encoding="utf-8"?>
<!-- Generator: Adobe Illustrator 26.5.0, SVG Export Plug-In . SVG Version: 6.00 Build 0)  -->
<svg version="1.1" id="Layer_1" xmlns="http://www.w3.org/2000/svg" xmlns:xlink="http://www.w3.org/1999/xlink" x="0px" y="0px"
	 viewBox="0 0 700 700" style="enable-background:new 0 0 700 700;" xml:space="preserve">
<style type="text/css">
	.st0{fill-rule:evenodd;clip-rule:evenodd;}
</style>
<path class="st0" d="M348.1,209.6c-97.9,0-188.2,52.9-236.2,138.2h0c-2.4,4.3-2.4,9.5,0,13.7c47.9,85.4,138.3,138.3,236.2,138.3v0h0
	c97.9,0,188.2-52.9,236.2-138.3c2.4-4.3,2.4-9.5,0-13.7C536.3,262.5,446,209.7,348.1,209.6L348.1,209.6L348.1,209.6z M348,237.6
	c85.2,0,163.9,44.6,207.8,117.1c-43.9,72.5-122.6,117.1-207.8,117.1c-85.2,0-163.9-44.6-207.8-117.2
	C184.2,282.2,262.9,237.6,348,237.6L348,237.6z M348,269.9c-46.7,0-84.9,38.2-84.9,84.9c0,46.7,38.2,84.9,84.9,84.9
	c46.7,0,84.9-38.2,84.9-84.9C432.9,308,394.7,269.9,348,269.9z M348,297.9c31.6,0,56.9,25.3,56.9,56.9c0,31.6-25.3,56.9-56.9,56.9
	c-31.6,0-56.9-25.3-56.9-56.9C291.2,323.2,316.5,297.9,348,297.9z"/>
</svg>
