<?xml version="1.0" encoding="utf-8"?>
<!-- Generator: Adobe Illustrator 26.5.0, SVG Export Plug-In . SVG Version: 6.00 Build 0)  -->
<svg version="1.1" id="Layer_1" xmlns="http://www.w3.org/2000/svg" xmlns:xlink="http://www.w3.org/1999/xlink" x="0px" y="0px"
	 viewBox="0 0 700 700" style="enable-background:new 0 0 700 700;" xml:space="preserve">
<style type="text/css">
	.st0{fill:#A30826;}
</style>
<g>
	<path class="st0" d="M353,629C198.4,629,73,503.7,73,349S198.4,69,353,69s280,125.4,280,280S507.6,629,353,629z M353,582.4
		c128.9,0,233.3-104.5,233.3-233.3S481.9,115.7,353,115.7S119.7,220.2,119.7,349S224.1,582.4,353,582.4z M458.1,325.7
		c12.8,0,23.2,10.4,23.2,23.3c0,12.9-10.4,23.3-23.2,23.3H247.9c-12.8,0-23.2-10.4-23.2-23.3c0-12.9,10.4-23.3,23.2-23.3H458.1z"/>
</g>
</svg>
