<?xml version="1.0" encoding="utf-8"?>
<!-- Generator: Adobe Illustrator 26.5.0, SVG Export Plug-In . SVG Version: 6.00 Build 0)  -->
<svg version="1.1" id="Layer_1" xmlns="http://www.w3.org/2000/svg" xmlns:xlink="http://www.w3.org/1999/xlink" x="0px" y="0px"
	 viewBox="0 0 700 700" style="enable-background:new 0 0 700 700;" xml:space="preserve">
<g>
	<path d="M439.6,29.1c-16.8,0-33,6.7-44.9,18.5c-11.9,11.9-18.6,28-18.6,44.8v239.6c-23.2-23.9-55.5-36.7-88.7-35.3
		c-29.7,1.2-57.9,13.5-78.8,34.6s-33.1,49.3-34.1,79.1s9.4,58.7,28.9,81.1c19.5,22.4,46.9,36.6,76.4,39.7c29.6,3.1,59.2-5.1,83-23
		c23.8-17.9,39.8-44.1,45-73.4c1.2-2.4,1.9-5,1.9-7.7v-234c0-7.9,3.1-15.5,8.7-21.1c5.6-5.6,13.2-8.7,21.1-8.7h66.5
		c5,0,9.8-2,13.4-5.5c3.6-3.6,5.5-8.4,5.5-13.4V48.1c0-5-2-9.8-5.5-13.4c-3.6-3.6-8.4-5.5-13.4-5.5L439.6,29.1z"/>
</g>
</svg>
