<?xml version="1.0" encoding="utf-8"?>
<!-- Generator: Adobe Illustrator 26.5.0, SVG Export Plug-In . SVG Version: 6.00 Build 0)  -->
<svg version="1.1" id="Layer_1" xmlns="http://www.w3.org/2000/svg" xmlns:xlink="http://www.w3.org/1999/xlink" x="0px" y="0px"
	 viewBox="0 0 700 700" style="enable-background:new 0 0 700 700;" xml:space="preserve">
<g>
	<path d="M409.9,192.8c0-7.9,3.1-15.5,8.7-21.1c5.6-5.6,13.1-8.8,21-8.8h61.6c6.3,0,12.4-2.5,16.8-7c4.5-4.5,7-10.5,7-16.8V52.4
		c0-6.3-2.5-12.4-7-16.8c-4.5-4.5-10.5-7-16.8-7h-61.6c-16.8,0-32.9,6.7-44.8,18.6c-11.9,11.9-18.6,28-18.6,44.9v141.6l33.6,37.6
		L409.9,192.8z"/>
	<path d="M574,505.3c-0.4-0.6-0.8-1.2-1.3-1.8L170.8,54.2l-18.6-20.6c-4-4.5-10.1-6.5-16-5.3c-5.9,1.2-10.7,5.5-12.5,11.2
		c-1.9,5.7-0.6,12,3.4,16.5l238.3,266.2c-27-21.5-62.2-30.1-96.1-23.4c-33.9,6.7-63.2,28-79.9,58.2c-16.8,30.2-19.4,66.3-7.2,98.6
		c12.2,32.3,38,57.7,70.6,69.3c32.6,11.6,68.6,8.3,98.5-9.1c29.9-17.4,50.6-47,56.7-81c1.2-2.4,1.9-5,2-7.7v-55.3l138,154.2
		c3.9,3.8,9.5,5.5,14.9,4.5c5.4-1,10-4.6,12.2-9.6C577.2,515.8,576.8,510,574,505.3L574,505.3z"/>
</g>
</svg>
