<?xml version="1.0" encoding="utf-8"?>
<!-- Generator: Adobe Illustrator 26.5.0, SVG Export Plug-In . SVG Version: 6.00 Build 0)  -->
<svg version="1.1" id="Layer_1" xmlns="http://www.w3.org/2000/svg" xmlns:xlink="http://www.w3.org/1999/xlink" x="0px" y="0px"
	 viewBox="0 0 700 700" style="enable-background:new 0 0 700 700;" xml:space="preserve">
<g>
	<path d="M350,614.3c-146.7,0-266-119.3-266-266s119.3-266,266-266s266,119.3,266,266S496.7,614.3,350,614.3z M350,126.7
		c-122.2,0-221.7,99.4-221.7,221.7S227.8,570,350,570s221.7-99.4,221.7-221.7S472.2,126.7,350,126.7L350,126.7z"/>
	<path d="M350,503.5c-12.2,0-22.2-9.9-22.2-22.2v-266c0-12.2,9.9-22.2,22.2-22.2c12.2,0,22.2,9.9,22.2,22.2v266
		C372.2,493.6,362.2,503.5,350,503.5z"/>
	<path d="M483,370.5H217c-12.2,0-22.2-9.9-22.2-22.2c0-12.2,9.9-22.2,22.2-22.2h266c12.2,0,22.2,9.9,22.2,22.2
		C505.2,360.6,495.2,370.5,483,370.5z"/>
</g>
</svg>
