<?xml version="1.0" encoding="utf-8"?>
<!-- Generator: Adobe Illustrator 26.5.0, SVG Export Plug-In . SVG Version: 6.00 Build 0)  -->
<svg version="1.1" id="Layer_1" xmlns="http://www.w3.org/2000/svg" xmlns:xlink="http://www.w3.org/1999/xlink" x="0px" y="0px"
	 viewBox="0 0 700 700" style="enable-background:new 0 0 700 700;" xml:space="preserve">
<g>
	<path d="M579.6,304.4c0-18.1-6.3-35.2-17.3-50.3c-5.5-33.9-33.9-61.5-71.5-70.9c-20.4-20.6-66.5-35-120-35
		c-35,0-66.7,6.1-90.3,16.2c-3.4-0.2-6.9-0.4-10.5-0.4c-27.6,0-50.9,7.5-58.6,17.7c-27.8,8.6-49.8,29.5-59,56.2
		c-17.9,13.6-29.2,34-29.2,56.8c0,41.1,36.9,74.4,82.5,74.4c6.1,0,12-0.6,17.6-1.7c-1.5,4.2-2.4,8.5-2.4,12.9
		c0,32.1,42,58.1,93.7,58.1c14.4,0,28.1-2,40.3-5.6c19.3,24.5,53.3,71.5,64.3,111.6h25.8c0,0-5.4-37.6-18.2-76.9
		c10.6,6.1,23.6,9.7,37.5,9.7c36.3,0,65.7-24.2,65.7-54c0-11.5-4.4-22.2-11.8-30.9C555.6,371.6,579.6,339.9,579.6,304.4L579.6,304.4
		z M376.8,392.8c-3.8,3.8-8.9,5.6-15.5,5.6c-6.6,0-11.8-1.9-15.5-5.6c-3.8-3.8-5.6-8.5-5.6-14.1c0-5.6,1.9-10.4,5.6-14.2
		c3.8-3.8,8.8-5.7,15.2-5.7c6.8,0,12,1.9,15.8,5.7c3.8,3.8,5.6,8.5,5.6,14.2C382.4,384.3,380.5,389.1,376.8,392.8L376.8,392.8z
		 M430.9,283.5c-6.1,9.9-16,16.7-29.6,20.4c-13.6,3.8-20.9,16.5-21.7,38.1h-39.5c0-17.9,3-32.7,9.2-44.4
		c6.1-11.8,16.8-19.3,32.2-22.7c12.9-2.3,19.6-11.8,20-28.5c-3.3-12.9-16.3-19.6-38.9-20c-16.9,0-30.1,5.6-39.5,16.9l-28.2-28.2
		c9.4-9.4,19.5-16.5,30.3-21.2c10.8-4.7,26-7.1,45.7-7.1c16.9,0,32.9,5.7,48,17c15.1,11.3,22.6,26.3,22.6,45.1
		C440.5,262.1,437,273.6,430.9,283.5L430.9,283.5z"/>
</g>
</svg>
